<?xml version="1.0"?>
<svg version="1.1" xmlns="http://www.w3.org/2000/svg" width="400px" height="200px" style=""><path fill="#" d="M57.326,116.005l0-15.51l-3.135,0l-0.825,3.135l-3.036,0l0-7.095l19.14,0l0,7.095l-3.069,0l-0.825-3.135l-3.135,0l0,15.51l3.135,0.99l0,2.805l-11.385,0l0-2.805z M80.34383,94.225l0,9.669c0.957-0.792,3.102-2.244,5.544-2.244c3.366,0,5.181,2.244,5.181,5.94l0,8.745l2.31,0.825l0,2.64l-8.976,0l0-2.64l1.716-0.792l0-7.986c0-1.65-0.66-2.64-2.178-2.64c-1.848,0-3.597,1.749-3.597,1.749l0,8.844l1.749,0.825l0,2.64l-9.339,0l0-2.64l2.64-0.825l0-18.546l-2.64-0.66l0-2.64z M113.75666,111.979l-10.956,0c0.198,2.64,1.716,4.191,3.993,4.191c2.739,0,5.544-1.551,5.544-1.551l1.419,2.739s-3.3,2.772-7.524,2.772c-5.676,0-8.58-3.3-8.58-8.91c0-5.775,3.267-9.57,8.811-9.57c4.917,0,7.491,3.036,7.491,7.755c0,1.254-0.198,2.475-0.198,2.574z M102.86666,108.91l5.973,0c0-1.881-0.792-3.3-2.706-3.3c-1.848,0-3.003,1.353-3.267,3.3z M128.93732,119.8l0-2.805l2.475-0.99l0-15.51l-2.475-0.99l0-2.805l7.59-0.165l9.24,0l0,6.27l-3.069,0l-0.825-2.31l-5.346,0l0,5.775l6.831,0l0,3.63l-6.831,0l0,6.105l3.036,0.99l0,2.805l-10.626,0z M158.95115,101.65c5.346,0,8.316,3.234,8.316,8.91c0,5.94-3.465,9.57-8.811,9.57c-5.379,0-8.415-2.805-8.415-9.075c0-5.94,3.531-9.405,8.91-9.405z M158.78615,105.61c-2.409,0-3.63,1.32-3.63,5.28c0,3.63,1.056,5.28,3.465,5.28c2.376,0,3.531-1.485,3.531-5.445c0-3.366-0.99-5.115-3.366-5.115z M180.78098,101.65c5.346,0,8.316,3.234,8.316,8.91c0,5.94-3.465,9.57-8.811,9.57c-5.379,0-8.415-2.805-8.415-9.075c0-5.94,3.531-9.405,8.91-9.405z M180.61598,105.61c-2.409,0-3.63,1.32-3.63,5.28c0,3.63,1.056,5.28,3.465,5.28c2.376,0,3.531-1.485,3.531-5.445c0-3.366-0.99-5.115-3.366-5.115z M205.91081,119.8l-0.297-1.749c-0.462,0.462-2.145,2.079-4.983,2.079c-4.62,0-6.765-3.366-6.765-8.811c0-6.204,2.97-9.669,9.009-9.669c0.792,0,1.749,0.165,2.475,0.33l0-4.191l-2.64-0.66l0-2.64l7.59-0.264l0,22.044l2.64,0.66l0,2.64z M205.34981,114.289l0-8.184c-0.627-0.297-1.617-0.495-2.574-0.495c-2.805,0-3.795,2.145-3.795,5.445c0,3.333,0.924,5.115,3.168,5.115c2.112,0,3.201-1.881,3.201-1.881z M243.16847,103.96l-0.759-3.168s-1.551-0.528-3.696-0.528c-3.465,0-5.445,2.574-5.445,8.085c0,5.346,2.145,7.59,5.61,7.59c3.3,0,6.27-2.31,6.27-2.31l1.815,2.97s-3.465,3.597-8.646,3.597c-6.699,0-10.56-4.026-10.56-11.682c0-7.755,4.356-12.375,11.121-12.375c3.993,0,7.689,1.551,7.689,1.551l-0.165,6.27l-3.234,0z M260.3123,101.65c5.346,0,8.316,3.234,8.316,8.91c0,5.94-3.465,9.57-8.811,9.57c-5.379,0-8.415-2.805-8.415-9.075c0-5.94,3.531-9.405,8.91-9.405z M260.1473,105.61c-2.409,0-3.63,1.32-3.63,5.28c0,3.63,1.056,5.28,3.465,5.28c2.376,0,3.531-1.485,3.531-5.445c0-3.366-0.99-5.115-3.366-5.115z M280.16213,101.98l0.297,2.277s2.376-2.607,4.587-2.607c1.815,0,3.069,0.594,3.069,0.594l-0.264,6.336l-2.97,0l-0.495-2.805c-1.914,0-3.564,1.848-3.564,1.848l0,8.712l3.3,0.825l0,2.64l-10.89,0l0-2.64l2.64-0.825l0-10.725l-2.64-0.825l0-2.64z M298.72496,101.98l0.231,2.277s3.135-2.541,6.072-2.541c3.201,0,5.016,2.277,5.016,5.874l0,8.745l2.31,0.825l0,2.64l-9.075,0l0-2.64l1.815-0.825l0-7.854c0-1.518-0.858-2.64-2.244-2.64c-2.046,0-3.531,1.881-3.531,1.881l0,8.613l1.815,0.825l0,2.64l-9.405,0l0-2.64l2.64-0.825l0-10.725l-2.64-0.825l0-2.64z M332.73179,111.979l-10.956,0c0.198,2.64,1.716,4.191,3.993,4.191c2.739,0,5.544-1.551,5.544-1.551l1.419,2.739s-3.3,2.772-7.524,2.772c-5.676,0-8.58-3.3-8.58-8.91c0-5.775,3.267-9.57,8.811-9.57c4.917,0,7.491,3.036,7.491,7.755c0,1.254-0.198,2.475-0.198,2.574z M321.84179,108.91l5.973,0c0-1.881-0.792-3.3-2.706-3.3c-1.848,0-3.003,1.353-3.267,3.3z M344.46362,101.98l0.297,2.277s2.376-2.607,4.587-2.607c1.815,0,3.069,0.594,3.069,0.594l-0.264,6.336l-2.97,0l-0.495-2.805c-1.914,0-3.564,1.848-3.564,1.848l0,8.712l3.3,0.825l0,2.64l-10.89,0l0-2.64l2.64-0.825l0-10.725l-2.64-0.825l0-2.64z"/><path fill="#c75e32" d=""/></svg>
